<?xml version="1.0" encoding="UTF-8" standalone="no" ?><!DOCTYPE svg PUBLIC "-//W3C//DTD SVG 1.1//EN" "http://www.w3.org/Graphics/SVG/1.1/DTD/svg11.dtd">
<svg xmlns="http://www.w3.org/2000/svg" xmlns:xlink="http://www.w3.org/1999/xlink" version="1.1" width="1101.6000000000001" height="1425.6000000000001" xml:space="preserve"><desc>Created with Fabric.js 1.4.3</desc><defs></defs><g transform="translate(542.25 16.91)"><path d="M 0 176 Q 0 176 0.5 176 Q 1 176 1.25 175.5 Q 1.5 175 17 166 Q 32.5 157 76 145.5 Q 119.5 134 167 128.5 Q 214.5 123 259 123 Q 303.5 123 341.5 123 Q 379.5 123 411.5 131 Q 443.5 139 464.5 161.5 Q 485.5 184 502 194.5 Q 518.5 205 526.5 213.5 Q 534.5 222 538 231.5 Q 541.5 241 542 251.5 Q 542.5 262 542.5 267.5 Q 542.5 273 540.5 276.5 Q 538.5 280 532 282.5 Q 525.5 285 510.5 287 Q 495.5 289 475.5 290 Q 455.5 291 425.5 291 Q 395.5 291 369.5 291 Q 343.5 291 318 278 Q 292.5 265 279.5 252.5 Q 266.5 240 261 223.5 Q 255.5 207 255.5 191 Q 255.5 175 264 152 Q 272.5 129 294 107.5 Q 315.5 86 345 68 Q 374.5 50 407.5 33.5 Q 440.5 17 474.5 9 Q 508.5 1 537.5 0.5 Q 566.5 0 587.5 0 Q 608.5 0 619 5 Q 629.5 10 633.5 22 Q 637.5 34 637.5 44 Q 637.5 54 634 64 Q 630.5 74 618 85.5 Q 605.5 97 569 113 Q 532.5 129 484.5 144 Q 436.5 159 386.5 168.5 Q 336.5 178 290 180.5 Q 243.5 183 217.5 183 Q 191.5 183 180 183 Q 168.5 183 166 183 Q 163.5 183 163.5 180 Q 163.5 177 183 166.5 Q 202.5 156 245 142.5 Q 287.5 129 338.5 118.5 Q 389.5 108 431 105 Q 472.5 102 504.5 102 Q 536.5 102 552 102 Q 567.5 102 575 104.5 Q 582.5 107 583 111.5 Q 583.5 116 583.5 118.5 Q 583.5 121 583.5 123.5 Q 583.5 126 576 128.5 L 568.5 131" style="stroke: rgb(0, 0, 0); stroke-width: 1; stroke-dasharray: ; stroke-linecap: round; stroke-linejoin: round; stroke-miterlimit: 10; fill: none; opacity: 1;" transform="translate(-318.5 -145.5)" stroke-linecap="round" /></g><g transform="translate(307.13 546.41)"><path d="M 633.5 0 Q 633.5 0 634 0 Q 634.5 0 634.25 0 Q 634 0 628.5 2.5 Q 623 5 579 12.5 Q 535 20 480.5 24.5 Q 426 29 367.5 34.5 Q 309 40 251 46 Q 193 52 145.5 55 Q 98 58 65.5 60.5 Q 33 63 16.5 64.5 Q 0 66 0 66 Q 0 66 0 66 Q 0 66 0 66 Q 0 66 0 66 Q 0 66 0 66 Q 0 66 0 66 Q 0 66 0 66 Q 0 66 0 66 L 0 66" style="stroke: rgb(0, 0, 0); stroke-width: 1; stroke-dasharray: ; stroke-linecap: round; stroke-linejoin: round; stroke-miterlimit: 10; fill: none; opacity: 1;" transform="translate(-317 -33)" stroke-linecap="round" /></g><g transform="translate(365.25 554.91)"><path d="M 0 0 Q 0 0 0.5 0 Q 1 0 2.75 0 Q 4.5 0 12 3 Q 19.5 6 34 13.5 Q 48.5 21 76 31.5 Q 103.5 42 129 52.5 Q 154.5 63 184 78.5 Q 213.5 94 232.5 102 Q 251.5 110 265 115 Q 278.5 120 287.5 122.5 Q 296.5 125 300.5 126.5 Q 304.5 128 305.5 128 Q 306.5 128 307 128 Q 307.5 128 307.5 128.5 Q 307.5 129 308 129 Q 308.5 129 308.5 129 Q 308.5 129 309 129 Q 309.5 129 309.5 129 Q 309.5 129 309.5 129 Q 309.5 129 309.5 129 L 309.5 129" style="stroke: rgb(0, 0, 0); stroke-width: 1; stroke-dasharray: ; stroke-linecap: round; stroke-linejoin: round; stroke-miterlimit: 10; fill: none; opacity: 1;" transform="translate(-154.5 -64.5)" stroke-linecap="round" /></g></svg> 